<?xml version="1.0" encoding="UTF-8" standalone="no"?><!DOCTYPE svg PUBLIC "-//W3C//DTD SVG 1.1//EN" "http://www.w3.org/Graphics/SVG/1.1/DTD/svg11.dtd"><svg xmlns="http://www.w3.org/2000/svg" version="1.1" width="199" height="153"><path fill="none" stroke="#000000" stroke-width="2" stroke-linecap="round" stroke-linejoin="round" d="M 1 28 c 0.18 0.04 6.7 1.02 10 2 c 15.96 4.76 31.12 9.37 47 15 c 11.12 3.94 22.23 7.67 32 13 c 8.09 4.41 15.93 10.71 23 17 c 7.87 7 15.78 14.97 22 23 c 3.76 4.85 6.85 11.28 9 17 c 1.71 4.55 2.4 10.02 3 15 c 0.39 3.26 0.67 7.16 0 10 c -0.54 2.29 -2.17 5.94 -4 7 c -3.52 2.04 -9.99 3.51 -15 4 c -11.61 1.14 -23.59 1 -36 1 c -16.89 0 -33.54 0.27 -49 -1 c -3.99 -0.33 -8.08 -2.43 -12 -4 c -2.78 -1.11 -7.46 -2.05 -8 -4 c -1.51 -5.46 -1.52 -17.38 0 -25 c 1.95 -9.74 6.65 -20.13 11 -30 c 5.79 -13.12 11.98 -25.62 19 -38 c 4.4 -7.76 9.43 -15.35 15 -22 c 4.59 -5.47 10.24 -11.01 16 -15 c 6.82 -4.72 15.94 -10.74 23 -12 c 6.08 -1.08 16.95 0.56 22 4 c 7.69 5.24 14.86 16.79 22 26 c 10.66 13.73 19.41 27.58 30 41 c 4.57 5.79 10.74 10.74 15 16 c 1.05 1.29 2.67 4.33 2 5 c -1.62 1.62 -7.83 3.88 -12 5 c -21.81 5.87 -43.43 11.15 -66 16 c -9.07 1.95 -17.77 2.33 -27 4 c -11.74 2.12 -22.56 5.27 -34 7 c -6.27 0.95 -14.16 1.63 -19 1 l -4 -4"/></svg>